<?xml version="1.0" standalone="no"?>
<!DOCTYPE svg PUBLIC "-//W3C//DTD SVG 20010904//EN"
 "http://www.w3.org/TR/2001/REC-SVG-20010904/DTD/svg10.dtd">
<svg version="1.0" xmlns="http://www.w3.org/2000/svg"
 width="530.000000pt" height="543.000000pt" viewBox="0 0 530.000000 543.000000"
 preserveAspectRatio="xMidYMid meet">

<g transform="translate(0.000000,543.000000) scale(0.100000,-0.100000)"
fill="#50C878" stroke="none">
<path d="M2760 5420 c-165 -26 -337 -112 -462 -229 -127 -119 -197 -231 -256
-406 -44 -133 -56 -223 -49 -388 10 -264 75 -452 339 -975 92 -183 168 -342
168 -353 0 -29 -22 -23 -46 14 -33 50 -384 486 -513 637 -155 182 -207 232
-336 328 -121 90 -225 145 -355 188 -79 26 -97 28 -250 28 -143 1 -175 -2
-244 -22 -208 -60 -367 -166 -498 -331 -76 -96 -124 -192 -154 -309 -76 -300
33 -530 317 -665 73 -35 108 -57 106 -67 -1 -9 -44 -30 -107 -52 -147 -53
-206 -85 -266 -144 -98 -95 -147 -231 -147 -409 -1 -142 18 -219 89 -364 49
-100 66 -124 142 -201 101 -100 204 -165 344 -215 138 -48 212 -59 384 -52
476 17 855 187 1299 582 113 100 131 111 151 94 8 -6 14 -16 14 -22 0 -6 -31
-81 -69 -166 -100 -226 -142 -374 -177 -611 -29 -200 -7 -924 37 -1200 5 -35
11 -65 12 -66 1 0 42 -10 90 -21 l88 -20 -6 26 c-15 58 -46 298 -66 506 -15
156 -22 295 -23 480 0 235 2 270 22 365 34 157 98 337 168 479 103 208 152
266 172 209 5 -13 7 -184 4 -380 -3 -293 -1 -381 12 -487 40 -313 128 -510
322 -719 98 -106 185 -172 299 -227 120 -58 187 -75 330 -82 261 -12 472 63
629 225 123 126 169 234 168 397 0 120 -21 194 -83 296 -59 99 -49 105 94 54
111 -40 113 -40 257 -40 138 0 148 2 205 28 257 120 417 456 375 792 -36 294
-149 492 -378 664 -117 88 -230 138 -397 177 -162 37 -716 28 -1079 -17 -89
-11 -205 -23 -259 -26 -98 -6 -99 -6 -95 17 2 19 22 30 123 66 353 129 931
398 1105 515 222 148 391 378 446 604 24 101 29 267 10 375 -47 270 -240 537
-476 660 -169 87 -326 91 -474 12 -28 -15 -100 -75 -161 -135 -61 -60 -116
-106 -125 -105 -12 3 -16 24 -21 94 -4 50 -14 118 -24 150 -61 211 -229 375
-439 429 -75 19 -216 26 -286 15z"/>
</g>
</svg>
